<svg width="400" height="400" viewBox="0 0 400 400" fill="none" xmlns="http://www.w3.org/2000/svg">
<g clip-path="url(#clip0_3505_67)">
<rect width="400" height="400" fill="#5D5246"/>
<path d="M240.98 217.964C253.675 217.87 252.029 188.558 263.205 188.645C273.188 188.722 278.016 202.971 279.578 215.835C280.957 227.206 279.816 253.611 262.844 253.625C249.247 253.636 249.229 233.766 242.232 233.619C234.45 233.455 231.555 253.636 214.989 253.636C192.957 253.636 200.494 216.247 190.353 216.094C180.251 215.902 183.409 253.636 152.159 253.636C117.543 253.636 116.771 217.632 120.505 203.031C124.786 186.297 137.835 167.575 161.271 170.003C184.978 172.46 183.153 193.764 190.634 193.676C201.336 193.551 204.35 147 220.298 147C240.299 147 222.284 218.107 240.983 217.964H240.98Z" fill="#F7F6E6"/>
<path d="M262.494 175.816C270.859 175.816 274.406 167.973 273.957 163.782C273.417 158.755 267.813 153.689 260.753 153.936C255.525 154.118 250.191 159.568 250.283 165.401C250.374 171.235 253.679 175.82 262.497 175.82L262.494 175.816Z" fill="#F7F6E6"/>
</g>
<defs>
<clipPath id="clip0_3505_67">
<rect width="400" height="400" fill="white"/>
</clipPath>
</defs>
</svg>
