<svg width="113" height="75" viewBox="0 0 113 75" fill="none" xmlns="http://www.w3.org/2000/svg">
<path fill-rule="evenodd" clip-rule="evenodd" d="M93.6473 38.8829C91.7993 44.1619 89.8872 49.624 85.3122 49.658H85.3146C78.8854 49.7072 78.6618 37.7068 78.4342 25.4923C78.1989 12.8607 77.9593 0 70.8476 0C64.7107 0 61.3122 9.86094 58.2498 18.7465C55.7462 26.0107 53.4673 32.623 50.1005 32.6626C48.181 32.685 47.1375 30.6928 45.7669 28.0763C43.4015 23.5605 40.062 17.1852 29.5645 16.0969C13.1734 14.3976 4.04656 27.4988 1.05254 39.2083C-1.55864 49.426 -1.01874 74.62 23.1911 74.62C37.1065 74.62 41.267 63.9166 44.2768 56.1737C45.9943 51.7551 47.3371 48.3005 49.9042 48.3493C52.7684 48.3927 53.6162 52.6855 54.624 57.7885C56.1117 65.3215 57.9481 74.62 67.1345 74.62C73.9879 74.62 77.4957 69.6788 80.3446 65.6658C82.3119 62.8946 83.9649 60.5662 86.1883 60.613C88.226 60.6557 89.4173 63.0916 90.8004 65.9197C92.7388 69.8832 95.054 74.617 100.604 74.6127C112.474 74.6029 113.272 56.1255 112.307 48.1686C111.215 39.1668 107.839 29.1956 100.857 29.1419C97.0677 29.1123 95.3858 33.9166 93.6473 38.8829ZM108.376 11.7434C108.69 14.6756 106.209 20.1642 100.359 20.1642L100.361 20.1666C94.1938 20.1666 91.882 16.9584 91.8182 12.8762C91.7544 8.79402 95.4846 4.98038 99.1413 4.85342C104.079 4.68007 107.998 8.22515 108.376 11.7434Z" fill="#F7F6E6"/>
</svg>
